<svg width="24" height="24" viewBox="0 0 24 24" fill="none" xmlns="http://www.w3.org/2000/svg">
<path fill-rule="evenodd" clip-rule="evenodd" d="M2 12C2 11.4477 2.44772 11 3 11L21 11C21.5523 11 22 11.4477 22 12C22 12.5523 21.5523 13 21 13L3 13C2.44772 13 2 12.5523 2 12Z" fill="black"/>
<path fill-rule="evenodd" clip-rule="evenodd" d="M12.7071 2.29289C13.0976 2.68342 13.0976 3.31658 12.7071 3.70711L4.41421 12L12.7071 20.2929C13.0976 20.6834 13.0976 21.3166 12.7071 21.7071C12.3166 22.0976 11.6834 22.0976 11.2929 21.7071L2.29289 12.7071C1.90237 12.3166 1.90237 11.6834 2.29289 11.2929L11.2929 2.29289C11.6834 1.90237 12.3166 1.90237 12.7071 2.29289Z" fill="black"/>
</svg>
