<svg width="16" height="17" viewBox="0 0 16 17" fill="none" xmlns="http://www.w3.org/2000/svg">
<path fill-rule="evenodd" clip-rule="evenodd" d="M1.3335 8.49998C1.3335 8.13179 1.63197 7.83331 2.00016 7.83331L14.0002 7.83331C14.3684 7.83331 14.6668 8.13179 14.6668 8.49998C14.6668 8.86817 14.3684 9.16665 14.0002 9.16665L2.00016 9.16665C1.63197 9.16665 1.3335 8.86817 1.3335 8.49998Z" fill="white"/>
<path fill-rule="evenodd" clip-rule="evenodd" d="M7.52843 14.9714C7.26808 14.7111 7.26808 14.289 7.52843 14.0286L13.057 8.50002L7.52843 2.97142C7.26808 2.71108 7.26808 2.28896 7.52843 2.02862C7.78878 1.76827 8.21089 1.76827 8.47124 2.02862L14.4712 8.02862C14.7316 8.28897 14.7316 8.71108 14.4712 8.97143L8.47124 14.9714C8.21089 15.2318 7.78878 15.2318 7.52843 14.9714Z" fill="white"/>
</svg>
