<svg width="24" height="24" viewBox="0 0 24 24" fill="none" xmlns="http://www.w3.org/2000/svg">
<path fill-rule="evenodd" clip-rule="evenodd" d="M2 12C2 11.4477 2.44772 11 3 11L21 11C21.5523 11 22 11.4477 22 12C22 12.5523 21.5523 13 21 13L3 13C2.44772 13 2 12.5523 2 12Z" fill="black"/>
<path fill-rule="evenodd" clip-rule="evenodd" d="M11.2929 21.7071C10.9024 21.3166 10.9024 20.6834 11.2929 20.2929L19.5858 12L11.2929 3.7071C10.9024 3.31658 10.9024 2.68342 11.2929 2.29289C11.6834 1.90237 12.3166 1.90237 12.7071 2.29289L21.7071 11.2929C22.0976 11.6834 22.0976 12.3166 21.7071 12.7071L12.7071 21.7071C12.3166 22.0976 11.6834 22.0976 11.2929 21.7071Z" fill="black"/>
</svg>
