<svg width="36" height="36" viewBox="0 0 36 36" fill="none" xmlns="http://www.w3.org/2000/svg">
<path d="M18.0004 0.54541C13.2602 0.54541 12.6653 0.566138 10.8035 0.650865C8.9454 0.735956 7.67707 1.03014 6.56729 1.46177C5.41932 1.90759 4.44553 2.50396 3.47538 3.4745C2.5045 4.44468 1.90815 5.4185 1.46089 6.56614C1.02818 7.67632 0.733643 8.94505 0.650009 10.8025C0.566739 12.6643 0.544922 13.2596 0.544922 18C0.544922 22.7403 0.566012 23.3334 0.650374 25.1952C0.735826 27.0534 1.03 28.3218 1.46126 29.4316C1.90743 30.5796 2.50377 31.5534 3.47429 32.5236C4.44408 33.4945 5.41787 34.0923 6.5651 34.5381C7.67561 34.9698 8.9443 35.264 10.8021 35.349C12.6638 35.4338 13.2584 35.4545 17.9982 35.4545C22.7388 35.4545 23.3319 35.4338 25.1936 35.349C27.0518 35.264 28.3215 34.9698 29.432 34.5381C30.5796 34.0923 31.552 33.4945 32.5218 32.5236C33.4927 31.5534 34.089 30.5796 34.5363 29.432C34.9653 28.3218 35.2599 27.053 35.3471 25.1956C35.4308 23.3338 35.4526 22.7403 35.4526 18C35.4526 13.2596 35.4308 12.6647 35.3471 10.8029C35.2599 8.94468 34.9653 7.67632 34.5363 6.5665C34.089 5.4185 33.4927 4.44468 32.5218 3.4745C31.5509 2.50359 30.58 1.90723 29.431 1.46177C28.3183 1.03014 27.0492 0.735956 25.1911 0.650865C23.3293 0.566138 22.7366 0.54541 17.9949 0.54541H18.0004ZM16.4346 3.69086C16.8993 3.69014 17.4179 3.69086 18.0004 3.69086C22.6606 3.69086 23.213 3.70759 25.0533 3.79123C26.755 3.86905 27.6786 4.15341 28.2939 4.39232C29.1084 4.70868 29.6891 5.08686 30.2997 5.69777C30.9105 6.30868 31.2887 6.8905 31.6058 7.70505C31.8447 8.31959 32.1294 9.24323 32.2069 10.945C32.2905 12.785 32.3087 13.3378 32.3087 17.996C32.3087 22.6541 32.2905 23.2069 32.2069 25.0469C32.1291 26.7487 31.8447 27.6723 31.6058 28.2869C31.2894 29.1014 30.9105 29.6814 30.2997 30.292C29.6888 30.9029 29.1088 31.281 28.2939 31.5974C27.6794 31.8374 26.755 32.121 25.0533 32.1989C23.2133 32.2825 22.6606 32.3007 18.0004 32.3007C13.3398 32.3007 12.7875 32.2825 10.9475 32.1989C9.24575 32.1203 8.32214 31.836 7.70652 31.597C6.892 31.2807 6.3102 30.9025 5.69931 30.2916C5.08842 29.6807 4.71025 29.1003 4.39317 28.2854C4.15427 27.6709 3.86955 26.7472 3.7921 25.0454C3.70846 23.2054 3.69174 22.6527 3.69174 17.9916C3.69174 13.3305 3.70846 12.7807 3.7921 10.9407C3.86991 9.23886 4.15427 8.31523 4.39317 7.69995C4.70952 6.88541 5.08842 6.30359 5.69931 5.69268C6.3102 5.08177 6.892 4.70359 7.70652 4.3865C8.32178 4.1465 9.24575 3.86286 10.9475 3.78468C12.5576 3.71196 13.1816 3.69014 16.4346 3.6865V3.69086ZM27.3172 6.58905C26.1609 6.58905 25.2227 7.52614 25.2227 8.68286C25.2227 9.83923 26.1609 10.7774 27.3172 10.7774C28.4735 10.7774 29.4117 9.83923 29.4117 8.68286C29.4117 7.5265 28.4735 6.58832 27.3172 6.58832V6.58905ZM18.0004 9.03632C13.0504 9.03632 9.03703 13.0498 9.03703 18C9.03703 22.9501 13.0504 26.9618 18.0004 26.9618C22.9504 26.9618 26.9623 22.9501 26.9623 18C26.9623 13.0498 22.9501 9.03632 18 9.03632H18.0004ZM18.0004 12.1818C21.2134 12.1818 23.8184 14.7865 23.8184 18C23.8184 21.213 21.2134 23.8181 18.0004 23.8181C14.787 23.8181 12.1824 21.213 12.1824 18C12.1824 14.7865 14.787 12.1818 18.0004 12.1818Z" fill="black"/>
</svg>
