<svg width="24" height="24" viewBox="0 0 24 24" fill="none" xmlns="http://www.w3.org/2000/svg">
<path d="M12.001 1C9.01358 1 8.63866 1.01306 7.46532 1.06646C6.29426 1.12008 5.49492 1.30548 4.7955 1.5775C4.07201 1.85846 3.4583 2.23429 2.84687 2.84594C2.23499 3.45735 1.85915 4.07106 1.57728 4.79431C1.30457 5.49396 1.11894 6.29352 1.06623 7.4641C1.01375 8.63744 1 9.01258 1 12C1 14.9874 1.01329 15.3612 1.06646 16.5345C1.12031 17.7056 1.30571 18.5049 1.57751 19.2043C1.8587 19.9278 2.23453 20.5415 2.84619 21.1529C3.45738 21.7648 4.07109 22.1415 4.79412 22.4225C5.49401 22.6945 6.29358 22.8799 7.4644 22.9335C8.63775 22.9869 9.01244 23 11.9997 23C14.9873 23 15.3611 22.9869 16.5345 22.9335C17.7055 22.8799 18.5058 22.6945 19.2056 22.4225C19.9289 22.1415 20.5417 21.7648 21.1529 21.1529C21.7648 20.5415 22.1406 19.9278 22.4225 19.2045C22.6929 18.5049 22.8785 17.7053 22.9335 16.5348C22.9862 15.3614 23 14.9874 23 12C23 9.01258 22.9862 8.63767 22.9335 7.46433C22.8785 6.29329 22.6929 5.49396 22.4225 4.79454C22.1406 4.07106 21.7648 3.45735 21.1529 2.84594C20.541 2.23406 19.9291 1.85823 19.205 1.5775C18.5037 1.30548 17.7039 1.12008 16.5328 1.06646C15.3595 1.01306 14.986 1 11.9976 1H12.001ZM11.0142 2.98229C11.3071 2.98183 11.6339 2.98229 12.001 2.98229C14.9381 2.98229 15.2862 2.99283 16.446 3.04554C17.5185 3.09458 18.1006 3.27379 18.4883 3.42435C19.0017 3.62373 19.3677 3.86206 19.7524 4.24706C20.1374 4.63206 20.3758 4.99873 20.5756 5.51206C20.7262 5.89935 20.9056 6.48144 20.9544 7.55394C21.0071 8.71352 21.0186 9.06185 21.0186 11.9975C21.0186 14.9331 21.0071 15.2814 20.9544 16.441C20.9054 17.5135 20.7262 18.0956 20.5756 18.4829C20.3762 18.9962 20.1374 19.3618 19.7524 19.7465C19.3674 20.1315 19.0019 20.3699 18.4883 20.5692C18.1011 20.7205 17.5185 20.8992 16.446 20.9483C15.2864 21.001 14.9381 21.0124 12.001 21.0124C9.06377 21.0124 8.71566 21.001 7.55607 20.9483C6.48356 20.8988 5.90147 20.7196 5.51348 20.569C5.00015 20.3696 4.63348 20.1313 4.24847 19.7463C3.86347 19.3613 3.62513 18.9955 3.4253 18.482C3.27473 18.0947 3.09529 17.5126 3.04648 16.4401C2.99377 15.2805 2.98323 14.9322 2.98323 11.9947C2.98323 9.05727 2.99377 8.71077 3.04648 7.55119C3.09552 6.47869 3.27473 5.8966 3.4253 5.50885C3.62467 4.99552 3.86347 4.62885 4.24847 4.24385C4.63348 3.85885 5.00015 3.62052 5.51348 3.42069C5.90124 3.26944 6.48356 3.09069 7.55607 3.04142C8.57083 2.99558 8.96408 2.98183 11.0142 2.97954V2.98229ZM17.8728 4.80875C17.144 4.80875 16.5528 5.39931 16.5528 6.12829C16.5528 6.85704 17.144 7.44829 17.8728 7.44829C18.6016 7.44829 19.1928 6.85704 19.1928 6.12829C19.1928 5.39954 18.6016 4.80829 17.8728 4.80829V4.80875ZM12.001 6.35104C8.88135 6.35104 6.35201 8.88035 6.35201 12C6.35201 15.1196 8.88135 17.6478 12.001 17.6478C15.1207 17.6478 17.6491 15.1196 17.6491 12C17.6491 8.88035 15.1205 6.35104 12.0008 6.35104H12.001ZM12.001 8.33333C14.026 8.33333 15.6677 9.97485 15.6677 12C15.6677 14.0249 14.026 15.6667 12.001 15.6667C9.97586 15.6667 8.33433 14.0249 8.33433 12C8.33433 9.97485 9.97586 8.33333 12.001 8.33333Z" fill="black"/>
</svg>
