<svg width="149" height="25" viewBox="0 0 149 25" fill="none" xmlns="http://www.w3.org/2000/svg">
<path d="M0.769287 24.1196H6.29898V9.62968H6.43723L14.7318 24.1196H20.9181V0.880403H15.3884V13.8833H15.2847L7.78509 0.880403H0.769287V24.1196Z" fill="black"/>
<path d="M25.306 24.1196H41.6531V19.451H31.7342V14.5403H39.2339V9.9755H31.7342V5.54899H41.3421V0.880403H25.306V24.1196Z" fill="black"/>
<path d="M44.0702 24.1196H50.4639L54.8531 16.2003H54.9914L59.346 24.1196H66.5L59.7262 11.9813L66.0162 0.880403H59.6225L55.8899 8.2464H55.7517L51.7427 0.880403H44.5886L50.9478 12.1542L44.0702 24.1196Z" fill="black"/>
<path d="M74.2211 24.1196H80.7531V5.54899H86.8357V0.880403H68.1039V5.54899H74.2211V24.1196Z" fill="black"/>
<path d="M89.9046 24.1196H106.252V19.451H96.3329V14.5403H103.833V9.9755H96.3329V5.54899H105.941V0.880403H89.9046V24.1196Z" fill="black"/>
<path d="M116.414 11.7392V5.30692H118.765C121.149 5.30692 122.082 6.27522 122.082 8.45389C122.082 10.6326 121.184 11.7392 118.868 11.7392H116.414ZM109.986 24.1196H116.484V15.647H118.903L123.119 24.1196H129.893L124.709 14.1254V13.987C127.128 12.9496 128.545 11.3242 128.545 8.14265C128.545 3.12824 125.608 0.880403 119.732 0.880403H109.986V24.1196Z" fill="black"/>
<path d="M139.268 24.5C145.282 24.5 148.462 21.8026 148.462 16.8228C148.462 12.1196 146.215 10.4942 142.102 9.69884L140.374 9.38761C138.335 8.97262 137.644 8.48847 137.644 7.2781C137.644 5.92939 138.715 5.27233 140.824 5.27233C143.45 5.27233 145.455 5.82565 147.079 6.37896V1.71037C145.697 1.05331 143.9 0.5 140.202 0.5C134.326 0.5 131.596 3.37032 131.596 7.76225C131.596 12.6383 133.842 14.2637 137.54 14.9553L139.268 15.3012C141.515 15.7507 142.102 16.1657 142.102 17.5144C142.102 18.8977 141.1 19.6931 138.508 19.6931C135.812 19.6931 133.704 19.1398 131.631 18.379V23.1167C133.289 24.0158 136.02 24.5 139.268 24.5Z" fill="black"/>
</svg>
