<svg width="149" height="24" viewBox="0 0 149 24" fill="none" xmlns="http://www.w3.org/2000/svg">
<path d="M0.769287 23.6196H6.29898V9.12968H6.43723L14.7318 23.6196H20.9181V0.380403H15.3884V13.3833H15.2847L7.78509 0.380403H0.769287V23.6196Z" fill="white"/>
<path d="M25.306 23.6196H41.6531V18.951H31.7342V14.0403H39.2339V9.4755H31.7342V5.04899H41.3421V0.380403H25.306V23.6196Z" fill="white"/>
<path d="M44.0702 23.6196H50.4639L54.8531 15.7003H54.9914L59.346 23.6196H66.5L59.7262 11.4813L66.0162 0.380403H59.6225L55.8899 7.7464H55.7517L51.7427 0.380403H44.5886L50.9478 11.6542L44.0702 23.6196Z" fill="white"/>
<path d="M74.2211 23.6196H80.7531V5.04899H86.8357V0.380403H68.1039V5.04899H74.2211V23.6196Z" fill="white"/>
<path d="M89.9046 23.6196H106.252V18.951H96.3329V14.0403H103.833V9.4755H96.3329V5.04899H105.941V0.380403H89.9046V23.6196Z" fill="white"/>
<path d="M116.414 11.2392V4.80692H118.765C121.149 4.80692 122.082 5.77522 122.082 7.95389C122.082 10.1326 121.184 11.2392 118.868 11.2392H116.414ZM109.986 23.6196H116.484V15.147H118.903L123.119 23.6196H129.893L124.709 13.6254V13.487C127.128 12.4496 128.545 10.8242 128.545 7.64265C128.545 2.62824 125.608 0.380403 119.732 0.380403H109.986V23.6196Z" fill="white"/>
<path d="M139.268 24C145.282 24 148.462 21.3026 148.462 16.3228C148.462 11.6196 146.215 9.99423 142.102 9.19884L140.374 8.88761C138.335 8.47262 137.644 7.98847 137.644 6.7781C137.644 5.42939 138.715 4.77233 140.824 4.77233C143.45 4.77233 145.455 5.32565 147.079 5.87896V1.21037C145.697 0.553313 143.9 0 140.202 0C134.326 0 131.596 2.87032 131.596 7.26225C131.596 12.1383 133.842 13.7637 137.54 14.4553L139.268 14.8012C141.515 15.2507 142.102 15.6657 142.102 17.0144C142.102 18.3977 141.1 19.1931 138.508 19.1931C135.812 19.1931 133.704 18.6398 131.631 17.879V22.6167C133.289 23.5158 136.02 24 139.268 24Z" fill="white"/>
</svg>
